<svg xmlns="http://www.w3.org/2000/svg" width="210.227" height="70" viewBox="0 0 210.227 70">
  <g id="Grupo_8" data-name="Grupo 8" transform="translate(-94.929 -148.271)">
    <g id="Grupo_2" data-name="Grupo 2" transform="translate(94.929 158.96)">
      <path id="Trazado_1" data-name="Trazado 1" d="M154.24,196.418a29.557,29.557,0,0,1-3.081,13.176.67.67,0,0,1-.064.029,30.858,30.858,0,0,0-11.216-13.176,17.316,17.316,0,1,0-26.253,5.562c-1.052.642-2.232,1.289-3.561,1.937-6.435,3.122-10.337,4.215-12.563,4.567a29.658,29.658,0,1,1,56.738-12.095Z" transform="translate(-94.929 -166.76)" fill="#ffba4c"/>
      <g id="Grupo_1" data-name="Grupo 1" transform="translate(12.239 4.452)">
        <path id="Trazado_2" data-name="Trazado 2" d="M150.723,191.775a17.212,17.212,0,0,1-1.914,7.92c-3.735-2.492-7.8-4.006-11.453-4.006-6.07,0-6.446,4.515-14.8,9.568a17.312,17.312,0,1,1,28.167-13.482Z" transform="translate(-116.099 -174.46)" fill="#e1411b"/>
      </g>
      <path id="Trazado_3" data-name="Trazado 3" d="M153.065,240.211c-5.567,2.226-13.02,4.614-19.368,4.614-11.9,0-24.588-5.44-28.907-5.544-1.838-.04-3.683.017-5.192.1a29.668,29.668,0,0,0,53.489.879c.012-.029.029-.052.04-.081A.684.684,0,0,1,153.065,240.211Z" transform="translate(-96.899 -197.348)" fill="#11a2e0"/>
      <path id="Trazado_4" data-name="Trazado 4" d="M152.972,228.362c-5.567,2.226-13.02,4.614-19.368,4.614-11.9,0-24.588-5.44-28.907-5.544-1.838-.04-3.683.017-5.192.1-.046-.092-.087-.191-.127-.283,2.226-.353,6.128-1.445,12.563-4.567,1.33-.648,2.509-1.3,3.561-1.937,8.354-5.053,8.73-9.568,14.8-9.568,3.648,0,7.718,1.515,11.453,4.006A30.858,30.858,0,0,1,152.972,228.362Z" transform="translate(-96.806 -185.499)" fill="#003f5a"/>
    </g>
    <path id="Trazado_5" data-name="Trazado 5" d="M173.92,155.792a16.991,16.991,0,0,0-6.9-.062l2.533-1.05-1.117-.467,3.108-.254-.464-1.134,1.957-.124-.436-.841,2.232-.056-1.047-.672,2.629-.6s-6.353-.959-8.421.859a6.692,6.692,0,0,0-2.023,4.241,6.751,6.751,0,0,0-1.962-4.353c-2.038-1.858-8.4-1.023-8.4-1.023l2.619.647-1.057.652,2.23.1-.449.832,1.954.162-.481,1.125,3.1.315-1.124.445,2.887,1.261a17.632,17.632,0,0,0-7.338-.016c-3.471.984-8.544,8.07-8.544,8.07l3.471-2.362.089,1.181,1.691-2.066v1.181l2.581-2.46.712,1.082,2.137-2.558-.179,1.476,1.87-2.165.445,1.279,2.269-1.426a12.571,12.571,0,0,0-4.529,6.547c-1.063,4.7.456,6.306.456,6.306l.366-3.967.824.64.23-2.543,1.293.749-.151-2.669.9.526.116-2.121.828.527.482-1.281c-.2,4.131-.767,12.606-1.8,16.827a50.617,50.617,0,0,1-6.269,13.794,10.083,10.083,0,0,1-.834.882l3.758.6a3.638,3.638,0,0,1,.264-1.229,46.1,46.1,0,0,0,4.611-13.368,123.591,123.591,0,0,0,1.071-18.15l.585,1.476.953-.776.349,2.826.9-.526-.151,2.668,1.293-.749.23,2.542.824-.64.367,3.967s1.519-1.6.456-6.306a12.566,12.566,0,0,0-4.529-6.547l2.269,1.425.445-1.279,1.869,2.165-.178-1.476,2.136,2.559.712-1.083,2.581,2.461v-1.181l1.691,2.067.089-1.181,3.472,2.362S177.391,156.776,173.92,155.792Z" transform="translate(-22.983 -0.76)" fill="#003f5a"/>
    <path id="Trazado_6" data-name="Trazado 6" d="M129.355,197.291a40.047,40.047,0,0,1-4.944-10.9c-.816-3.336-1.26-10.035-1.42-13.3l.38,1.012.653-.416.091,1.675.707-.416-.119,2.109,1.02-.592.182,2.01.65-.506.288,3.136s1.2-1.268.36-4.984a9.931,9.931,0,0,0-3.572-5.175l1.789,1.127.351-1.011,1.474,1.711-.14-1.167,1.685,2.022.562-.856,2.036,1.944v-.933l1.334,1.633.07-.933,2.737,1.866s-4-5.6-6.739-6.377a13.864,13.864,0,0,0-5.787.013l2.277-1-.886-.352,2.447-.249-.38-.889,1.542-.128-.354-.657,1.759-.079-.834-.516,2.065-.511s-5.021-.66-6.629.808a5.339,5.339,0,0,0-1.547,3.44,5.3,5.3,0,0,0-1.6-3.353c-1.63-1.437-6.64-.679-6.64-.679l2.073.471-.826.531,1.76.045-.344.664,1.544.1-.365.9,2.451.2-.881.369,2,.83a13.383,13.383,0,0,0-5.439.05c-2.737.778-6.739,6.378-6.739,6.378l2.737-1.866.07.933,1.334-1.634v.934l2.036-1.944.561.856,1.685-2.022-.14,1.167,1.474-1.711.351,1.011,1.79-1.127a9.926,9.926,0,0,0-3.572,5.175c-.839,3.716.359,4.984.359,4.984l.288-3.135.65.506.182-2.01,1.02.592-.119-2.109.706.416.275-2.233.752.613.461-1.166a97.873,97.873,0,0,0,.845,14.345,74.909,74.909,0,0,0,3.012,11.95c.069.184.425.337.459.612l2.832-2.024C129.454,197.406,129.4,197.346,129.355,197.291Z" transform="translate(-6.13 -7.25)" fill="#003f5a"/>
    <g id="Grupo_3" data-name="Grupo 3" transform="translate(162.644 148.271)">
      <path id="Trazado_7" data-name="Trazado 7" d="M212.056,148.811a34.367,34.367,0,0,1,4.882-.319c3.023,0,4.972.527,6.5,1.626a6.088,6.088,0,0,1,2.611,5.264,7.09,7.09,0,0,1-2.5,5.716c-1.684,1.366-4.292,2.012-7.351,2.012a30.381,30.381,0,0,1-4.14-.228Zm3.389,11.623a9.5,9.5,0,0,0,1.34.061c3.464.034,5.647-1.69,5.647-4.941.009-2.988-2.06-4.48-5.211-4.48a9.19,9.19,0,0,0-1.776.142Z" transform="translate(-212.056 -148.364)" fill="#404040"/>
      <path id="Trazado_8" data-name="Trazado 8" d="M252.106,148.712v14.33h-3.389v-14.33Z" transform="translate(-227.522 -148.457)" fill="#404040"/>
      <path id="Trazado_9" data-name="Trazado 9" d="M268.1,159.349a8.894,8.894,0,0,0,4,1.013c1.546,0,2.379-.6,2.379-1.54,0-.832-.695-1.348-2.578-1.9-2.535-.73-4.37-1.966-4.37-4.323,0-2.49,2.226-4.332,5.718-4.332a9.722,9.722,0,0,1,4.128.79l-.807,2.666a8.155,8.155,0,0,0-3.381-.745c-1.482,0-2.19.63-2.19,1.355,0,.927.915,1.312,2.88,1.939,2.749.884,4.085,2.156,4.085,4.356,0,2.312-1.8,4.478-6.126,4.478a10.289,10.289,0,0,1-4.481-1Z" transform="translate(-235.385 -148.271)" fill="#404040"/>
      <path id="Trazado_10" data-name="Trazado 10" d="M309.641,162.4a10.571,10.571,0,0,1-4.167.712c-5.4,0-8.223-3.131-8.223-7.221,0-4.715,3.669-7.618,8.512-7.618a9.627,9.627,0,0,1,4.053.723l-.726,2.632a8.167,8.167,0,0,0-3.2-.622c-2.879,0-5.077,1.62-5.077,4.685,0,2.691,1.823,4.651,5.107,4.651a8.842,8.842,0,0,0,3.164-.548Z" transform="translate(-247.997 -148.271)" fill="#404040"/>
      <path id="Trazado_11" data-name="Trazado 11" d="M344.115,155.583c0,4.467-3.143,7.527-7.824,7.527-4.585,0-7.491-3.14-7.491-7.279a7.327,7.327,0,0,1,7.723-7.561C341.236,148.271,344.115,151.392,344.115,155.583Zm-11.716.156c0,2.659,1.563,4.744,4.069,4.744,2.527,0,4.048-2.049,4.048-4.8,0-2.6-1.5-4.786-4.052-4.786S332.4,153.048,332.4,155.739Z" transform="translate(-261.306 -148.271)" fill="#404040"/>
      <path id="Trazado_12" data-name="Trazado 12" d="M371.132,148.712V156.6c0,2.6,1.063,4.068,3.009,4.068,2,0,3.057-1.407,3.057-4.068v-7.885h3.389v7.783c0,4.664-2.515,6.8-6.594,6.8-3.824,0-6.25-1.985-6.25-6.863v-7.722Z" transform="translate(-277.735 -148.457)" fill="#404040"/>
      <path id="Trazado_13" data-name="Trazado 13" d="M403.558,163.042v-14.33h4.18l3.232,5.135a38.166,38.166,0,0,1,2.611,5.16l.059-.009a48.1,48.1,0,0,1-.254-5.771v-4.515h3.15v14.33h-3.673l-3.372-5.541a56.412,56.412,0,0,1-2.831-5.315l-.081.009c.106,2.052.128,4.018.128,6.177v4.67Z" transform="translate(-292.844 -148.457)" fill="#404040"/>
      <path id="Trazado_14" data-name="Trazado 14" d="M441.971,151.479h-4.313v-2.767h12.084v2.767H445.36v11.563h-3.389Z" transform="translate(-307.23 -148.457)" fill="#404040"/>
    </g>
    <g id="Grupo_4" data-name="Grupo 4" transform="translate(162.663 170.843)">
      <path id="Trazado_15" data-name="Trazado 15" d="M216.918,200.955l-4.83-13.235h1.021l2.612,7.286c.726,2.042,1.3,3.593,1.708,4.968h.04c.452-1.394,1.119-3.024,1.9-4.949l2.946-7.3h1.041l-5.5,13.235Z" transform="translate(-212.088 -187.485)" fill="#404040"/>
      <path id="Trazado_16" data-name="Trazado 16" d="M246.2,196.3l-1.826,4.654h-1l5.341-13.235h.942l5.3,13.235h-1l-1.866-4.654Zm5.577-.8-1.866-4.654c-.354-.884-.53-1.453-.727-2.1h-.039c-.2.668-.413,1.257-.727,2.043l-1.885,4.713Z" transform="translate(-225.286 -187.485)" fill="#404040"/>
      <path id="Trazado_17" data-name="Trazado 17" d="M289.871,200.253a9.986,9.986,0,0,1-4.143.766c-3.574,0-6.991-2.18-6.991-6.794,0-3.456,2.553-6.912,7.521-6.912a8.155,8.155,0,0,1,3.575.667l-.314.805a7.519,7.519,0,0,0-3.2-.668c-4.3,0-6.579,2.612-6.579,6.185,0,3.26,2.18,5.891,6.342,5.891a8.21,8.21,0,0,0,3.5-.706Z" transform="translate(-240.205 -187.313)" fill="#404040"/>
      <path id="Trazado_18" data-name="Trazado 18" d="M316.555,196.3l-1.826,4.654h-1l5.341-13.235h.942l5.3,13.235h-1l-1.866-4.654Zm5.577-.8-1.866-4.654c-.353-.884-.53-1.453-.727-2.1H319.5c-.2.668-.412,1.257-.727,2.043l-1.885,4.713Z" transform="translate(-254.966 -187.485)" fill="#404040"/>
      <path id="Trazado_19" data-name="Trazado 19" d="M349.67,188.525h-4.929v-.805h10.82v.805h-4.929v12.43h-.963Z" transform="translate(-268.05 -187.485)" fill="#404040"/>
      <path id="Trazado_20" data-name="Trazado 20" d="M380.217,187.72v13.235h-.962V187.72Z" transform="translate(-282.61 -187.485)" fill="#404040"/>
      <path id="Trazado_21" data-name="Trazado 21" d="M412.014,193.989a6.61,6.61,0,0,1-6.716,7.03,6.434,6.434,0,0,1-6.578-6.676,6.67,6.67,0,0,1,6.716-7.03A6.4,6.4,0,0,1,412.014,193.989Zm-12.293.314a5.636,5.636,0,0,0,5.616,5.93c3.5,0,5.675-2.651,5.675-6.166,0-2.867-1.865-5.97-5.616-5.97C401.626,188.1,399.721,191.044,399.721,194.3Z" transform="translate(-290.822 -187.313)" fill="#404040"/>
      <path id="Trazado_22" data-name="Trazado 22" d="M439.518,200.955V187.72h.9l5.989,8.149a44.034,44.034,0,0,1,2.691,3.868l.039-.039c-.138-1.531-.157-3.1-.157-5.144V187.72h.943v13.235h-.884l-5.793-7.874c-1.119-1.531-2.14-2.926-2.847-4.1l-.059.039c.1,1.492.117,2.906.117,4.87v7.069Z" transform="translate(-308.033 -187.485)" fill="#404040"/>
    </g>
    <g id="Grupo_5" data-name="Grupo 5" transform="translate(162.113 211.974)">
      <path id="Trazado_23" data-name="Trazado 23" d="M212.728,259.179h-1.59v-.574h3.869v.574h-1.6v4.653h-.682Z" transform="translate(-211.138 -258.52)" fill="#404040"/>
      <path id="Trazado_24" data-name="Trazado 24" d="M220.588,258.605v2.187h2.528v-2.187h.682v5.227h-.682v-2.451h-2.528v2.451h-.675v-5.227Z" transform="translate(-214.84 -258.52)" fill="#404040"/>
      <path id="Trazado_25" data-name="Trazado 25" d="M232.44,261.381h-2.032v1.884h2.264v.567h-2.939v-5.227h2.822v.567h-2.148v1.651h2.032Z" transform="translate(-218.983 -258.52)" fill="#404040"/>
      <path id="Trazado_26" data-name="Trazado 26" d="M241.584,263.832l-1.706-5.227h.729l.814,2.575c.225.705.419,1.341.558,1.954H242c.147-.6.364-1.264.6-1.946l.884-2.582h.721l-1.869,5.227Z" transform="translate(-223.262 -258.52)" fill="#404040"/>
      <path id="Trazado_27" data-name="Trazado 27" d="M250.079,258.605v5.227H249.4v-5.227Z" transform="translate(-227.282 -258.52)" fill="#404040"/>
      <path id="Trazado_28" data-name="Trazado 28" d="M253.685,258.605h.675v4.66h2.233v.567h-2.907Z" transform="translate(-229.087 -258.52)" fill="#404040"/>
      <path id="Trazado_29" data-name="Trazado 29" d="M261.091,258.605h.675v4.66H264v.567h-2.908Z" transform="translate(-232.211 -258.52)" fill="#404040"/>
      <path id="Trazado_30" data-name="Trazado 30" d="M269.055,262.188l-.543,1.644h-.7l1.775-5.227h.814l1.784,5.227h-.721l-.558-1.644Zm1.714-.527-.512-1.5c-.117-.341-.194-.652-.272-.953h-.016c-.077.31-.162.628-.264.945l-.512,1.512Z" transform="translate(-235.048 -258.52)" fill="#404040"/>
      <path id="Trazado_31" data-name="Trazado 31" d="M285.452,263.56a4.866,4.866,0,0,1-1.6.287,2.454,2.454,0,0,1-2.683-2.636,2.621,2.621,0,0,1,2.831-2.7,3.22,3.22,0,0,1,1.3.241l-.163.55a2.7,2.7,0,0,0-1.155-.225,1.955,1.955,0,0,0-2.1,2.1,1.915,1.915,0,0,0,2.016,2.108,2.2,2.2,0,0,0,.9-.139V261.59h-1.062v-.543h1.721Z" transform="translate(-240.68 -258.481)" fill="#404040"/>
      <path id="Trazado_32" data-name="Trazado 32" d="M291.442,258.647a6.957,6.957,0,0,1,1.3-.109,2.14,2.14,0,0,1,1.512.427,1.3,1.3,0,0,1,.411.993,1.373,1.373,0,0,1-.985,1.334v.023a1.3,1.3,0,0,1,.768,1.055,8.381,8.381,0,0,0,.4,1.435h-.7a6.783,6.783,0,0,1-.349-1.249c-.156-.721-.434-.992-1.047-1.016h-.636V263.8h-.675Zm.675,2.38h.69c.721,0,1.179-.4,1.179-.993,0-.675-.489-.97-1.2-.977a2.776,2.776,0,0,0-.667.061Z" transform="translate(-245.015 -258.492)" fill="#404040"/>
      <path id="Trazado_33" data-name="Trazado 33" d="M304.014,261.1a2.448,2.448,0,0,1-2.427,2.753,2.4,2.4,0,0,1-2.35-2.652,2.483,2.483,0,0,1,2.428-2.745A2.38,2.38,0,0,1,304.014,261.1Zm-4.056.086c0,1.116.6,2.117,1.667,2.117s1.675-.985,1.675-2.172c0-1.039-.543-2.125-1.667-2.125S299.959,260.04,299.959,261.187Z" transform="translate(-248.304 -258.458)" fill="#404040"/>
      <path id="Trazado_34" data-name="Trazado 34" d="M310.762,258.605V261.7c0,1.171.519,1.667,1.217,1.667.775,0,1.271-.512,1.271-1.667v-3.094h.683v3.048c0,1.6-.845,2.264-1.977,2.264-1.07,0-1.877-.613-1.877-2.233v-3.079Z" transform="translate(-252.878 -258.52)" fill="#404040"/>
      <path id="Trazado_35" data-name="Trazado 35" d="M319.847,258.639a7.8,7.8,0,0,1,1.294-.1,2.149,2.149,0,0,1,1.466.434,1.407,1.407,0,0,1,.458,1.094,1.538,1.538,0,0,1-.4,1.116,2.162,2.162,0,0,1-1.6.573,2.318,2.318,0,0,1-.542-.046V263.8h-.675Zm.675,2.52a2.259,2.259,0,0,0,.558.054c.815,0,1.311-.4,1.311-1.117,0-.69-.489-1.023-1.233-1.023a2.814,2.814,0,0,0-.635.054Z" transform="translate(-256.999 -258.492)" fill="#404040"/>
      <path id="Trazado_36" data-name="Trazado 36" d="M334.683,261.381h-2.031v1.884h2.264v.567h-2.939v-5.227H334.8v.567h-2.147v1.651h2.031Z" transform="translate(-262.116 -258.52)" fill="#404040"/>
      <path id="Trazado_37" data-name="Trazado 37" d="M342.224,263.832l-.667-1.156c-.271-.442-.442-.728-.605-1.031h-.015c-.147.3-.295.582-.566,1.039l-.628,1.148h-.776l1.6-2.644-1.536-2.582h.783l.69,1.226c.194.341.341.6.48.884h.023c.147-.31.28-.55.474-.884l.713-1.226h.775l-1.589,2.544,1.628,2.683Z" transform="translate(-265.065 -258.52)" fill="#404040"/>
      <path id="Trazado_38" data-name="Trazado 38" d="M351.423,263.6a3.357,3.357,0,0,1-1.38.247,2.442,2.442,0,0,1-2.583-2.644,2.6,2.6,0,0,1,2.73-2.745,2.794,2.794,0,0,1,1.24.232l-.162.551a2.453,2.453,0,0,0-1.055-.217,1.943,1.943,0,0,0-2.04,2.155,1.9,1.9,0,0,0,2.008,2.1,2.7,2.7,0,0,0,1.1-.217Z" transform="translate(-268.648 -258.458)" fill="#404040"/>
      <path id="Trazado_39" data-name="Trazado 39" d="M356.853,258.605h.675v4.66h2.233v.567h-2.907Z" transform="translate(-272.61 -258.52)" fill="#404040"/>
      <path id="Trazado_40" data-name="Trazado 40" d="M364.445,258.605V261.7c0,1.171.52,1.667,1.218,1.667.775,0,1.271-.512,1.271-1.667v-3.094h.683v3.048c0,1.6-.845,2.264-1.977,2.264-1.071,0-1.877-.613-1.877-2.233v-3.079Z" transform="translate(-275.525 -258.52)" fill="#404040"/>
      <path id="Trazado_41" data-name="Trazado 41" d="M373.246,262.948a2.392,2.392,0,0,0,1.21.341c.69,0,1.093-.364,1.093-.891,0-.488-.279-.768-.985-1.038-.853-.3-1.38-.745-1.38-1.482a1.5,1.5,0,0,1,1.69-1.419,2.386,2.386,0,0,1,1.156.256l-.187.551a2.08,2.08,0,0,0-.993-.248c-.713,0-.985.426-.985.783,0,.489.318.729,1.039,1.008.885.342,1.334.768,1.334,1.536,0,.806-.6,1.5-1.83,1.5a2.707,2.707,0,0,1-1.334-.333Z" transform="translate(-279.454 -258.458)" fill="#404040"/>
      <path id="Trazado_42" data-name="Trazado 42" d="M381.894,258.605v5.227h-.675v-5.227Z" transform="translate(-282.889 -258.52)" fill="#404040"/>
      <path id="Trazado_43" data-name="Trazado 43" d="M386.239,263.832l-1.706-5.227h.729l.814,2.575c.225.705.419,1.341.559,1.954h.015c.147-.6.365-1.264.6-1.946l.884-2.582h.721l-1.869,5.227Z" transform="translate(-284.287 -258.52)" fill="#404040"/>
      <path id="Trazado_44" data-name="Trazado 44" d="M396.766,261.381h-2.031v1.884H397v.567H394.06v-5.227h2.822v.567h-2.147v1.651h2.031Z" transform="translate(-288.306 -258.52)" fill="#404040"/>
      <path id="Trazado_45" data-name="Trazado 45" d="M406.209,262.188l-.543,1.644h-.7l1.776-5.227h.814l1.784,5.227h-.721l-.559-1.644Zm1.714-.527-.512-1.5c-.116-.341-.194-.652-.271-.953h-.016c-.077.31-.163.628-.264.945l-.512,1.512Z" transform="translate(-292.908 -258.52)" fill="#404040"/>
      <path id="Trazado_46" data-name="Trazado 46" d="M418.488,263.56a4.866,4.866,0,0,1-1.6.287,2.454,2.454,0,0,1-2.684-2.636,2.621,2.621,0,0,1,2.831-2.7,3.219,3.219,0,0,1,1.3.241l-.164.55a2.7,2.7,0,0,0-1.155-.225,1.955,1.955,0,0,0-2.1,2.1,1.915,1.915,0,0,0,2.016,2.108,2.2,2.2,0,0,0,.9-.139V261.59h-1.062v-.543h1.721Z" transform="translate(-296.802 -258.481)" fill="#404040"/>
      <path id="Trazado_47" data-name="Trazado 47" d="M427.184,261.381h-2.031v1.884h2.264v.567h-2.939v-5.227H427.3v.567h-2.147v1.651h2.031Z" transform="translate(-301.139 -258.52)" fill="#404040"/>
      <path id="Trazado_48" data-name="Trazado 48" d="M432.152,263.832v-5.227h.737l1.674,2.644a14.657,14.657,0,0,1,.938,1.7l.016-.007c-.062-.7-.078-1.334-.078-2.148v-2.187h.635v5.227h-.682l-1.659-2.652a16.526,16.526,0,0,1-.978-1.745l-.023.008c.039.659.054,1.287.054,2.156v2.233Z" transform="translate(-304.376 -258.52)" fill="#404040"/>
      <path id="Trazado_49" data-name="Trazado 49" d="M445.481,263.6a3.36,3.36,0,0,1-1.381.247,2.442,2.442,0,0,1-2.582-2.644,2.6,2.6,0,0,1,2.729-2.745,2.8,2.8,0,0,1,1.241.232l-.163.551a2.457,2.457,0,0,0-1.055-.217,1.943,1.943,0,0,0-2.039,2.155,1.9,1.9,0,0,0,2.008,2.1,2.7,2.7,0,0,0,1.1-.217Z" transform="translate(-308.327 -258.458)" fill="#404040"/>
      <path id="Trazado_50" data-name="Trazado 50" d="M451.757,263.832v-2.218l-1.652-3.009h.768l.737,1.443c.2.395.357.713.519,1.078h.016c.147-.342.325-.683.527-1.078l.752-1.443h.768l-1.752,3v2.226Z" transform="translate(-311.95 -258.52)" fill="#404040"/>
    </g>
    <g id="Grupo_6" data-name="Grupo 6" transform="translate(162.694 191.574)">
      <path id="Trazado_51" data-name="Trazado 51" d="M213.169,223.606v6.176H222v-6.176h1.026v14.11H222V230.64h-8.834v7.076h-1.026v-14.11Z" transform="translate(-212.143 -223.355)" fill="#404040"/>
      <path id="Trazado_52" data-name="Trazado 52" d="M274.5,230.289c0,4.878-3.475,7.494-7.16,7.494a6.859,6.859,0,0,1-7.012-7.117,7.112,7.112,0,0,1,7.159-7.494A6.823,6.823,0,0,1,274.5,230.289Zm-13.1.335c0,3.328,2.282,6.322,5.987,6.322,3.726,0,6.05-2.826,6.05-6.573,0-3.056-1.989-6.364-5.987-6.364C263.429,224.01,261.4,227.15,261.4,230.625Z" transform="translate(-232.472 -223.172)" fill="#404040"/>
      <path id="Trazado_53" data-name="Trazado 53" d="M314.822,224.465h-5.255v-.859H321.1v.859h-5.254v13.251h-1.026Z" transform="translate(-253.243 -223.355)" fill="#404040"/>
      <path id="Trazado_54" data-name="Trazado 54" d="M364.048,230.7h-6.28v6.154h6.991v.859h-8.018v-14.11H364.4v.859h-6.635v5.38h6.28Z" transform="translate(-273.144 -223.355)" fill="#404040"/>
      <path id="Trazado_55" data-name="Trazado 55" d="M400.042,223.606h1.026v13.251h6.992v.859h-8.018Z" transform="translate(-291.411 -223.355)" fill="#404040"/>
      <path id="Trazado_56" data-name="Trazado 56" d="M441.458,235.879a6.224,6.224,0,0,0,3.5,1.047c2.282,0,3.664-1.215,3.664-2.952,0-1.612-.816-2.533-3.182-3.287-2.826-.9-3.957-2.051-3.957-3.893,0-2.073,1.779-3.622,4.375-3.622a6.1,6.1,0,0,1,3.14.712l-.4.859a5.205,5.205,0,0,0-2.785-.733c-2.533,0-3.328,1.528-3.328,2.637,0,1.507.9,2.365,3.182,3.1,2.574.837,3.957,1.842,3.957,4.124,0,1.947-1.424,3.915-4.794,3.915a7.061,7.061,0,0,1-3.768-1.046Z" transform="translate(-308.716 -223.172)" fill="#404040"/>
    </g>
  </g>
</svg>
