<svg xmlns="http://www.w3.org/2000/svg" width="18.235" height="21.96" viewBox="0 0 18.235 21.96">
  <path id="Trazado_84" data-name="Trazado 84" d="M83.569,501.874a7,7,0,0,1-1.059,3.761,8.932,8.932,0,0,1-6.825,3.943,10.776,10.776,0,0,1-8.12-3.548,9.31,9.31,0,0,1-2.107-4.815,11.254,11.254,0,0,1,1.516-7.607,13.214,13.214,0,0,1,4.9-4.544,13.028,13.028,0,0,1,2.174-.924c.17-.053.923-.224,1.2-.287,1.213-.27,1.341-.3,1.645-.076a.754.754,0,0,1,.309.608v.408l.015,6.1h.056a6.561,6.561,0,0,1,4.526,2.2A7.173,7.173,0,0,1,83.569,501.874Zm-16.729-2.4a10.836,10.836,0,0,0,.109,1.529,7.818,7.818,0,0,0,1.757,4.043,9.3,9.3,0,0,0,6.908,3.027,7.36,7.36,0,0,0,5.627-3.248,5.741,5.741,0,0,0-.559-6.728,5.054,5.054,0,0,0-3.458-1.7v1.55a3.477,3.477,0,0,1,1.477,5.81,3.885,3.885,0,0,1-2.626,1.079,4.607,4.607,0,0,1-4.283-2.865,5.087,5.087,0,0,1,.817-5.056,5.652,5.652,0,0,1,3.1-1.885l-.015-5.741c-.51.11-1.077.245-1.2.28a11.417,11.417,0,0,0-1.914.816,11.712,11.712,0,0,0-4.34,4.024A9.448,9.448,0,0,0,66.84,499.476Zm6.118.705a3.23,3.23,0,0,0,.231,1.224,3.118,3.118,0,0,0,2.848,1.927,2.368,2.368,0,0,0,1.6-.642,1.978,1.978,0,0,0-1.229-3.375.751.751,0,0,1-.69-.748v-1.978a4.08,4.08,0,0,0-1.941,1.278,3.7,3.7,0,0,0-.823,2.315Z" transform="translate(-65.335 -487.627)" fill="#fff"/>
</svg>
